<?xml version="1.0"?>
 <!DOCTYPE svg PUBLIC "-//W3C//DTD SVG 1.1//EN" "http://www.w3.org/Graphics/SVG/1.1/DTD/svg11.dtd">
 <svg version="1.1" xmlns="http://www.w3.org/2000/svg" xmlns:xlink="http://www.w3.org/1999/xlink" width="4in" height="4in" 
 viewBox="0 0 400 400" preserveAspectRatio="xMidYMid">

    <defs>
        <g id="polygon" fill="black">
            <polygon points="119.32,105.18 114.14,114.14 105.18,119.32 94.82,119.32 85.86,114.14 80.68,105.18 80.68,94.82 85.86,85.86 94.82,80.68 105.18,80.68 114.14,85.86 119.32,94.82"/>
            <animateTransform attributeName="transform" type="rotate" from="0 100 100" to="360 100 100" dur="3s" repeatCount="indefinite"/>
        </g>

        <g id="figure">
            <use xlink:href="#polygon" transform="translate(150,210) scale(1)" />
            <use xlink:href="#polygon" transform="translate(60,190) scale(1)" />
            <line x1="150" y1="210" x2="60" y2="190" stroke-width="3" stroke="red" transform="translate(100,100)"/>
        </g>
    </defs>

    <g>
        <use xlink:href="#figure"/>
        <polygon points="200,200 180,335 220,335" transform="translate(65,160) scale(0.7)" fill="blue"/>
    </g>
    <g>
        <use xlink:href="#figure" transform="translate(-50,-40) scale(0.8)"/>
        <polygon points="200,200 180,335 220,335" transform="translate(5,90) scale(0.55)" fill="purple"/>
    </g>
    <g>
        <use xlink:href="#figure" transform="translate(200,20) scale(0.6)"/>
        <polygon points="200,200 180,335 220,335" transform="translate(240,120) scale(0.4)" fill="green"/>
    </g>
    
    
 </svg>